<svg xmlns="http://www.w3.org/2000/svg" width="53" height="94" viewBox="0 0 53 94" fill="none"><path d="M49.5076 80.8088C48.0854 84.6353 46.4379 86.9205 44.5572 88.0315C41.8421 89.636 37.4571 90.9081 31.3979 90.9081H27.274C25.5115 90.9081 23.7793 89.894 22.9695 89.112C22.1128 88.285 21.5662 86.9836 21.5662 84.8449V62.0345H30.6571C34.8859 62.0345 37.4214 62.7692 38.2669 63.9106C38.9384 64.8199 39.4807 66.4053 39.8856 68.6701C40.0775 69.7484 40.9899 70.545 42.2582 70.545L42.2582 50.4805C40.9899 50.4805 40.0775 51.2783 39.8856 52.3555C39.4807 54.6203 38.9373 56.2067 38.2669 57.1138C37.4214 58.2563 34.8859 58.9899 30.6571 58.9899H21.5662V32.2582H30.2345C36.577 32.2582 40.875 33.6003 43.1305 35.1327C44.9364 36.3631 46.2392 38.7835 47.0479 42.743C47.2855 43.9047 48.4723 44.9368 49.6446 44.9368L49.4461 29.1619H0.00411441C0.00411435 30.4825 1.01263 31.6002 2.31103 31.7196C3.8883 31.8627 5.02371 32.1704 5.70972 32.6436C6.69914 33.3197 7.18766 34.9805 7.18766 37.6183L7.18766 85.5481C7.18766 88.187 6.69914 89.8444 5.70972 90.5227C5.02817 90.9914 3.90375 91.2991 2.34098 91.4422C1.02473 91.5639 0.00302234 92.6603 0.00302228 94H51.454L52.9967 78.2657C51.5154 78.2668 50.0274 79.4048 49.5076 80.8088Z" fill="#EF426F"></path><path d="M12.7664 9.98637C12.0368 9.50072 7.27803 6.02916 3.27127 8.21849C2.32981 8.73455 1.5113 9.58645 0.949103 10.4755C0.377983 11.3623 0.0867481 12.3977 0.0120118 13.4185C-0.116267 15.1943 0.811761 16.853 1.41969 17.5528C2.524 18.8249 3.50668 19.102 4.10569 19.2688C5.12523 19.555 6.51058 19.4716 7.69855 19.1594C8.07781 19.0603 8.44613 18.9207 8.80531 18.7618C8.80531 18.7618 8.80082 18.746 8.78298 18.7223C8.70043 18.5511 8.35785 18.1532 7.59153 18.3087C6.8687 18.4529 6.1013 18.506 5.01037 18.2164C3.81236 17.8998 2.92777 16.9263 2.55967 15.7341C2.37227 15.0806 2.34004 14.4067 2.46163 13.7645C2.6468 12.7718 3.27586 11.7927 4.16043 11.3217C6.33225 10.1645 9.19337 11.5065 10.4371 12.1183C11.8515 12.8135 13.3106 13.7002 14.6983 14.5937C16.7675 15.9278 17.4435 16.2614 19.3799 17.3273C20.221 17.7904 21.3754 18.1679 22.0904 18.2208C22.7697 18.2693 23.1558 17.9786 23.1558 17.9786L12.7664 9.98637Z" fill="#EF426F"></path><path d="M40.2343 9.98692C40.9594 9.50128 45.7201 6.02971 49.7291 8.21904C50.6706 8.7351 51.4847 9.587 52.0491 10.476C52.6202 11.3628 52.9114 12.3982 52.9884 13.4191C53.1144 15.1949 52.1865 16.8536 51.5785 17.5533C50.4742 18.8255 49.4915 19.1026 48.8925 19.2693C47.8752 19.5555 46.4851 19.4721 45.2994 19.16C44.9201 19.0608 44.552 18.9212 44.1951 18.7623C44.1951 18.7623 44.1974 18.7465 44.2152 18.7229C44.2978 18.5516 44.6403 18.1538 45.4089 18.3093C46.1295 18.4535 46.8969 18.5066 47.9889 18.217C49.1892 17.9004 50.0693 16.9268 50.4396 15.7347C50.627 15.0812 50.6614 14.4073 50.5399 13.765C50.3502 12.7723 49.7213 11.7932 48.8367 11.3222C46.6693 10.165 43.8037 11.507 42.5644 12.1189C41.1477 12.8141 39.6864 13.7008 38.301 14.5943C36.2318 15.9284 35.5581 16.262 33.6172 17.3279C32.7784 17.791 31.6239 18.1684 30.9067 18.2214C30.2318 18.2698 29.8413 17.9792 29.8413 17.9792L40.2343 9.98692Z" fill="#EF426F"></path><path d="M26.6961 1.74359e-08L26.3012 0C25.6219 3.40624 23.131 6.70534 19.1444 7.32845V7.55952C23.131 8.18263 25.6219 11.4807 26.3012 14.8892H26.6961C27.3754 11.4818 29.8663 8.18263 33.853 7.55953V7.32845C29.8663 6.70534 27.3765 3.40624 26.6961 1.74359e-08Z" fill="#EF426F"></path></svg>