<svg xmlns="http://www.w3.org/2000/svg" width="34" height="34" viewBox="0 0 34 34" fill="none"><path d="M13.4516 11.0869L7.96439 6L6.242 7.59657C5.82419 7.98394 5.4983 8.44795 5.28525 8.95888C5.0722 9.46981 4.97668 10.0164 5.00481 10.5635C5.2417 15.1737 7.32378 19.5365 10.8445 22.8001V22.8001C14.2926 25.9966 18.8813 27.9159 23.7484 28.1974L24.0414 28.2145C24.6417 28.2494 25.2431 28.1654 25.8057 27.9683C26.3683 27.7711 26.8792 27.4653 27.3045 27.071L29 25.4995L23.2078 20.1298L20.6107 22.5371C20.4724 22.6652 20.3012 22.7586 20.1132 22.8086C19.9252 22.8585 19.7265 22.8633 19.536 22.8225V22.8225C17.3533 22.3563 15.3559 21.331 13.7715 19.8635V19.8635C12.2635 18.4669 11.1858 16.7219 10.6502 14.8094L10.5657 14.5069C10.5153 14.3267 10.5166 14.1373 10.5694 13.9577C10.6221 13.778 10.7245 13.6142 10.8665 13.4824L13.4516 11.0869Z" stroke="#333333" stroke-width="1.5" stroke-linecap="round" stroke-linejoin="round"></path></svg>