<?xml version="1.0" encoding="UTF-8"?> <svg xmlns="http://www.w3.org/2000/svg" width="45" height="45" viewBox="0 0 45 45" fill="none"><circle cx="22.5" cy="22.5" r="22.5" fill="white"></circle><ellipse cx="22.5" cy="22.5004" rx="10.5" ry="15.5" transform="rotate(-45 22.5 22.5004)" fill="#F5E2E2"></ellipse><path d="M10.2318 24C10.1731 24 10.1438 23.9707 10.1438 23.912V23.872C10.1438 23.8347 10.1545 23.7947 10.1758 23.752L12.3278 20.376C12.4078 20.2427 12.4878 20.1147 12.5678 19.992C12.6478 19.864 12.7305 19.7387 12.8158 19.616V19.6C12.6718 19.6053 12.5251 19.608 12.3758 19.608C12.2265 19.608 12.0745 19.608 11.9198 19.608H10.4798C10.4158 19.608 10.3838 19.576 10.3838 19.512V18.856C10.3838 18.792 10.4158 18.76 10.4798 18.76H14.2078C14.2718 18.76 14.3038 18.7893 14.3038 18.848V18.888C14.3038 18.9093 14.3011 18.9307 14.2958 18.952C14.2905 18.968 14.2825 18.9867 14.2718 19.008L12.1438 22.304C12.0531 22.448 11.9625 22.592 11.8718 22.736C11.7811 22.8747 11.6878 23.0133 11.5918 23.152V23.168C11.7518 23.1573 11.9145 23.152 12.0798 23.152C12.2451 23.152 12.4131 23.152 12.5838 23.152H14.0238C14.0878 23.152 14.1198 23.184 14.1198 23.248V23.904C14.1198 23.968 14.0878 24 14.0238 24H10.2318ZM15.1331 24C15.0745 24 15.0451 23.968 15.0451 23.904V18.856C15.0451 18.792 15.0745 18.76 15.1331 18.76H18.1971C18.2558 18.76 18.2851 18.792 18.2851 18.856V19.512C18.2851 19.576 18.2558 19.608 18.1971 19.608H16.0051V20.944H18.0051C18.0638 20.944 18.0931 20.976 18.0931 21.04V21.656C18.0931 21.72 18.0638 21.752 18.0051 21.752H16.0051V23.152H18.1971C18.2558 23.152 18.2851 23.184 18.2851 23.248V23.904C18.2851 23.968 18.2558 24 18.1971 24H15.1331ZM19.4534 24C19.3948 24 19.3654 23.968 19.3654 23.904V18.856C19.3654 18.792 19.3948 18.76 19.4534 18.76H20.9414C21.6348 18.76 22.1441 18.9067 22.4694 19.2C22.8001 19.488 22.9654 19.912 22.9654 20.472C22.9654 21.0213 22.7974 21.4427 22.4614 21.736C22.1254 22.024 21.6214 22.168 20.9494 22.168H20.3254V23.904C20.3254 23.968 20.2934 24 20.2294 24H19.4534ZM20.3254 21.352H20.9334C21.2961 21.352 21.5654 21.2827 21.7414 21.144C21.9174 21.0053 22.0054 20.784 22.0054 20.48C22.0054 20.16 21.9174 19.9307 21.7414 19.792C21.5654 19.6533 21.2934 19.584 20.9254 19.584H20.3254V21.352ZM23.9222 24C23.8635 24 23.8342 23.968 23.8342 23.904V18.856C23.8342 18.792 23.8635 18.76 23.9222 18.76H26.9862C27.0449 18.76 27.0742 18.792 27.0742 18.856V19.512C27.0742 19.576 27.0449 19.608 26.9862 19.608H24.7942V20.944H26.7942C26.8529 20.944 26.8822 20.976 26.8822 21.04V21.656C26.8822 21.72 26.8529 21.752 26.7942 21.752H24.7942V23.152H26.9862C27.0449 23.152 27.0742 23.184 27.0742 23.248V23.904C27.0742 23.968 27.0449 24 26.9862 24H23.9222ZM29.3545 24C29.2905 24 29.2585 23.968 29.2585 23.904V19.608H27.8825C27.8185 19.608 27.7865 19.576 27.7865 19.512V18.856C27.7865 18.792 27.8185 18.76 27.8825 18.76H31.6025C31.6665 18.76 31.6985 18.792 31.6985 18.856V19.512C31.6985 19.576 31.6665 19.608 31.6025 19.608H30.2265V23.904C30.2265 23.968 30.1945 24 30.1305 24H29.3545ZM34.3893 24.096C33.6853 24.096 33.1573 23.928 32.8053 23.592C32.4533 23.2507 32.2773 22.7627 32.2773 22.128V20.632C32.2773 19.992 32.4533 19.504 32.8053 19.168C33.1573 18.832 33.6853 18.664 34.3893 18.664C35.0879 18.664 35.6133 18.832 35.9653 19.168C36.3173 19.504 36.4933 19.992 36.4933 20.632V22.128C36.4933 22.7627 36.3173 23.2507 35.9653 23.592C35.6133 23.928 35.0879 24.096 34.3893 24.096ZM34.3893 23.256C34.7679 23.256 35.0533 23.1573 35.2453 22.96C35.4373 22.7573 35.5333 22.464 35.5333 22.08V20.68C35.5333 20.296 35.4373 20.0053 35.2453 19.808C35.0533 19.6053 34.7679 19.504 34.3893 19.504C34.0106 19.504 33.7226 19.6053 33.5253 19.808C33.3333 20.0053 33.2373 20.296 33.2373 20.68V22.08C33.2373 22.464 33.3333 22.7573 33.5253 22.96C33.7226 23.1573 34.0106 23.256 34.3893 23.256Z" fill="#333333"></path></svg> 