<svg xmlns="http://www.w3.org/2000/svg" width="21" height="29" viewBox="0 0 21 29" fill="none"><g clip-path="url(#clip0_371_75028)"><path d="M3.73989 25.3224C3.56299 24.9265 3.54096 24.4657 3.71376 24.0294L7.64505 14.1953C7.70989 14.0331 7.8951 13.9528 8.05834 14.016L14.8931 16.5983C15.0583 16.6607 15.1391 16.8416 15.0734 17.0019L11.1421 26.8359C10.7948 27.7047 9.79077 28.1402 8.90598 27.8059L4.68923 26.2128C4.24684 26.0456 3.91593 25.7165 3.73903 25.3205L3.73989 25.3224ZM8.12214 14.711L4.30735 24.2536C4.20074 24.5203 4.20628 24.8088 4.32194 25.0677C4.4376 25.3266 4.65063 25.5273 4.92138 25.628L9.13813 27.2212C9.40972 27.3238 9.70433 27.3164 9.96947 27.2014C10.2346 27.0864 10.441 26.8764 10.5457 26.6106L14.3605 17.068L8.11934 14.71L8.12214 14.711Z" fill="#1D1D1B" stroke="#1D1D1B" stroke-width="0.3"></path><path d="M8.63427 14.8023C8.60195 14.73 8.59802 14.643 8.6299 14.5633L11.3149 7.84691C11.3797 7.68471 11.5649 7.60437 11.7282 7.66763L16.5945 9.50621C16.7597 9.56862 16.8405 9.74946 16.7748 9.90976L14.0898 16.6262C14.025 16.7884 13.8398 16.8687 13.6765 16.8054L8.81019 14.9669C8.72899 14.9362 8.66658 14.8746 8.63427 14.8023ZM11.792 8.3626L9.33999 14.4962L13.6127 16.1105L16.0647 9.97691L11.792 8.3626Z" fill="#1D1D1B" stroke="#1D1D1B" stroke-width="0.3"></path><path d="M11.8019 8.26904C11.7696 8.1967 11.7656 8.10978 11.7975 8.03005L14.2352 1.93223C14.3306 1.6977 14.5367 1.52875 14.7914 1.48416C15.0452 1.43767 15.2977 1.52357 15.4696 1.71035L17.022 3.41393C17.7929 4.25896 18.0085 5.44483 17.5843 6.50604L16.2962 9.72815C16.2314 9.89035 16.0462 9.97069 15.8829 9.90743L11.9798 8.43276C11.8986 8.40208 11.8361 8.34053 11.8038 8.26819L11.8019 8.26904ZM16.9566 4.46039C16.8554 4.23386 16.7163 4.02151 16.5427 3.83093L14.9903 2.12734C14.9588 2.09328 14.9217 2.09349 14.9024 2.09729C14.8832 2.1011 14.8464 2.11251 14.8307 2.15566L12.5076 7.9629L15.8152 9.21415L16.9887 6.28261C17.2294 5.68053 17.2109 5.02955 16.9575 4.46229L16.9566 4.46039Z" fill="#1D1D1B" stroke="#1D1D1B" stroke-width="0.3"></path><path d="M14.8288 4.45592C14.64 4.03333 14.6239 3.58581 14.7865 3.17892C14.8514 3.01671 15.0366 2.93637 15.1998 2.99963C15.365 3.06205 15.4458 3.24289 15.3801 3.40319C15.2647 3.69186 15.2996 4.01989 15.4801 4.33017C15.6719 4.66055 16.0005 4.92708 16.4065 5.08047C16.5717 5.14289 16.6525 5.32373 16.5868 5.48403C16.5219 5.64623 16.3367 5.72657 16.1735 5.66331C15.6331 5.45914 15.1888 5.0951 14.9255 4.6412C14.8888 4.57986 14.8588 4.51789 14.8307 4.45507L14.8288 4.45592Z" fill="#1D1D1B" stroke="#1D1D1B" stroke-width="0.3"></path><path d="M9.2402 25.9141C9.20788 25.8417 9.20396 25.7548 9.23583 25.6751L12.4648 17.5978C12.5297 17.4356 12.7149 17.3553 12.8781 17.4185C13.0433 17.4809 13.1241 17.6618 13.0584 17.8221L9.82942 25.8994C9.76458 26.0616 9.57938 26.1419 9.41613 26.0786C9.33493 26.048 9.27252 25.9864 9.2402 25.9141Z" fill="#1D1D1B" stroke="#1D1D1B" stroke-width="0.3"></path></g><defs><clipPath id="clip0_371_75028"><rect width="20.7407" height="28" fill="white" transform="translate(0 0.5)"></rect></clipPath></defs></svg>